{
    "asset" : {
        "generator" : "Khronos glTF Blender I/O v3.4.50",
        "version" : "2.0"
    },
    "scene" : 0,
    "scenes" : [
        {
            "name" : "Scene",
            "nodes" : [
                0
            ]
        }
    ],
    "nodes" : [
        {
            "mesh" : 0,
            "name" : "brass_pan_01"
        }
    ],
    "materials" : [
        {
            "doubleSided" : true,
            "name" : "brass_pan_01",
            "normalTexture" : {
                "index" : 0
            },
            "pbrMetallicRoughness" : {
                "baseColorTexture" : {
                    "index" : 1
                },
                "metallicRoughnessTexture" : {
                    "index" : 2
                }
            }
        }
    ],
    "meshes" : [
        {
            "name" : "subtool1.001",
            "primitives" : [
                {
                    "attributes" : {
                        "POSITION" : 0,
                        "TEXCOORD_0" : 1,
                        "NORMAL" : 2,
                        "TANGENT" : 3
                    },
                    "indices" : 4,
                    "material" : 0
                }
            ]
        }
    ],
    "textures" : [
        {
            "sampler" : 0,
            "source" : 0
        },
        {
            "sampler" : 0,
            "source" : 1
        },
        {
            "sampler" : 0,
            "source" : 2
        }
    ],
    "images" : [
        {
            "mimeType" : "image/jpeg",
            "name" : "brass_pan_01_nor_gl",
            "uri" : "textures/brass_pan_01_nor_gl_4k.jpg"
        },
        {
            "mimeType" : "image/jpeg",
            "name" : "brass_pan_01_diff",
            "uri" : "textures/brass_pan_01_diff_4k.jpg"
        },
        {
            "mimeType" : "image/jpeg",
            "name" : "brass_pan_01_metal-brass_pan_01_rough",
            "uri" : "textures/brass_pan_01_arm_4k.jpg"
        }
    ],
    "accessors" : [
        {
            "bufferView" : 0,
            "componentType" : 5126,
            "count" : 2603,
            "max" : [
                0.09614318609237671,
                0.05251114442944527,
                0.09747844934463501
            ],
            "min" : [
                -0.095127172768116,
                1.7589190974831581e-06,
                -0.3521861732006073
            ],
            "type" : "VEC3"
        },
        {
            "bufferView" : 1,
            "componentType" : 5126,
            "count" : 2603,
            "type" : "VEC2"
        },
        {
            "bufferView" : 2,
            "componentType" : 5126,
            "count" : 2603,
            "type" : "VEC3"
        },
        {
            "bufferView" : 3,
            "componentType" : 5126,
            "count" : 2603,
            "type" : "VEC4"
        },
        {
            "bufferView" : 4,
            "componentType" : 5123,
            "count" : 13020,
            "type" : "SCALAR"
        }
    ],
    "bufferViews" : [
        {
            "buffer" : 0,
            "byteLength" : 31236,
            "byteOffset" : 0,
            "target" : 34962
        },
        {
            "buffer" : 0,
            "byteLength" : 20824,
            "byteOffset" : 31236,
            "target" : 34962
        },
        {
            "buffer" : 0,
            "byteLength" : 31236,
            "byteOffset" : 52060,
            "target" : 34962
        },
        {
            "buffer" : 0,
            "byteLength" : 41648,
            "byteOffset" : 83296,
            "target" : 34962
        },
        {
            "buffer" : 0,
            "byteLength" : 26040,
            "byteOffset" : 124944,
            "target" : 34963
        }
    ],
    "samplers" : [
        {
            "magFilter" : 9729,
            "minFilter" : 9987
        }
    ],
    "buffers" : [
        {
            "byteLength" : 150984,
            "uri" : "brasspan.bin"
        }
    ]
}
