{
    "asset" : {
        "generator" : "Khronos glTF Blender I/O v3.4.50",
        "version" : "2.0"
    },
    "scene" : 0,
    "scenes" : [
        {
            "name" : "Scene",
            "nodes" : [
                0
            ]
        }
    ],
    "nodes" : [
        {
            "mesh" : 0,
            "name" : "compost_bag_02"
        }
    ],
    "materials" : [
        {
            "doubleSided" : true,
            "name" : "compost_bag_02",
            "normalTexture" : {
                "index" : 0
            },
            "pbrMetallicRoughness" : {
                "baseColorTexture" : {
                    "index" : 1
                },
                "metallicFactor" : 0,
                "metallicRoughnessTexture" : {
                    "index" : 2
                }
            }
        }
    ],
    "meshes" : [
        {
            "name" : "mesh.007",
            "primitives" : [
                {
                    "attributes" : {
                        "POSITION" : 0,
                        "TEXCOORD_0" : 1,
                        "NORMAL" : 2,
                        "TANGENT" : 3
                    },
                    "indices" : 4,
                    "material" : 0
                }
            ]
        }
    ],
    "textures" : [
        {
            "sampler" : 0,
            "source" : 0
        },
        {
            "sampler" : 0,
            "source" : 1
        },
        {
            "sampler" : 0,
            "source" : 2
        }
    ],
    "images" : [
        {
            "mimeType" : "image/jpeg",
            "name" : "compost_bag_02_nor_gl",
            "uri" : "textures/compost_bag_02_nor_gl_4k.jpg"
        },
        {
            "mimeType" : "image/jpeg",
            "name" : "compost_bag_02_diff",
            "uri" : "textures/compost_bag_02_diff_4k.jpg"
        },
        {
            "mimeType" : "image/jpeg",
            "name" : "compost_bag_02_rough",
            "uri" : "textures/compost_bag_02_arm_4k.jpg"
        }
    ],
    "accessors" : [
        {
            "bufferView" : 0,
            "componentType" : 5126,
            "count" : 7139,
            "max" : [
                0.25882047414779663,
                0.4243673086166382,
                0.25042781233787537
            ],
            "min" : [
                -0.28052523732185364,
                -0.009294407442212105,
                -0.2201090008020401
            ],
            "type" : "VEC3"
        },
        {
            "bufferView" : 1,
            "componentType" : 5126,
            "count" : 7139,
            "type" : "VEC2"
        },
        {
            "bufferView" : 2,
            "componentType" : 5126,
            "count" : 7139,
            "type" : "VEC3"
        },
        {
            "bufferView" : 3,
            "componentType" : 5126,
            "count" : 7139,
            "type" : "VEC4"
        },
        {
            "bufferView" : 4,
            "componentType" : 5123,
            "count" : 36288,
            "type" : "SCALAR"
        }
    ],
    "bufferViews" : [
        {
            "buffer" : 0,
            "byteLength" : 85668,
            "byteOffset" : 0,
            "target" : 34962
        },
        {
            "buffer" : 0,
            "byteLength" : 57112,
            "byteOffset" : 85668,
            "target" : 34962
        },
        {
            "buffer" : 0,
            "byteLength" : 85668,
            "byteOffset" : 142780,
            "target" : 34962
        },
        {
            "buffer" : 0,
            "byteLength" : 114224,
            "byteOffset" : 228448,
            "target" : 34962
        },
        {
            "buffer" : 0,
            "byteLength" : 72576,
            "byteOffset" : 342672,
            "target" : 34963
        }
    ],
    "samplers" : [
        {
            "magFilter" : 9729,
            "minFilter" : 9987
        }
    ],
    "buffers" : [
        {
            "byteLength" : 415248,
            "uri" : "compost_bag_02_4k.bin"
        }
    ]
}
