{
    "asset" : {
        "generator" : "Khronos glTF Blender I/O v3.4.50",
        "version" : "2.0"
    },
    "scene" : 0,
    "scenes" : [
        {
            "name" : "Scene",
            "nodes" : [
                0
            ]
        }
    ],
    "nodes" : [
        {
            "mesh" : 0,
            "name" : "Megaphone_01"
        }
    ],
    "materials" : [
        {
            "doubleSided" : true,
            "name" : "Megaphone_01",
            "normalTexture" : {
                "index" : 0
            },
            "pbrMetallicRoughness" : {
                "baseColorTexture" : {
                    "index" : 1
                },
                "metallicRoughnessTexture" : {
                    "index" : 2
                }
            }
        }
    ],
    "meshes" : [
        {
            "name" : "Polsen MP-25 LP",
            "primitives" : [
                {
                    "attributes" : {
                        "POSITION" : 0,
                        "TEXCOORD_0" : 1,
                        "NORMAL" : 2,
                        "TANGENT" : 3
                    },
                    "indices" : 4,
                    "material" : 0
                }
            ]
        }
    ],
    "textures" : [
        {
            "sampler" : 0,
            "source" : 0
        },
        {
            "sampler" : 0,
            "source" : 1
        },
        {
            "sampler" : 0,
            "source" : 2
        }
    ],
    "images" : [
        {
            "mimeType" : "image/jpeg",
            "name" : "Megaphone_01_nor_gl",
            "uri" : "textures/Megaphone_01_nor_gl_4k.jpg"
        },
        {
            "mimeType" : "image/jpeg",
            "name" : "Megaphone_01_diff",
            "uri" : "textures/Megaphone_01_diff_4k.jpg"
        },
        {
            "mimeType" : "image/jpeg",
            "name" : "Megaphone_01_metallic-Megaphone_01_roughness",
            "uri" : "textures/Megaphone_01_arm_4k.jpg"
        }
    ],
    "accessors" : [
        {
            "bufferView" : 0,
            "componentType" : 5126,
            "count" : 11130,
            "max" : [
                0.1425524652004242,
                0.1144845262169838,
                0.11429242789745331
            ],
            "min" : [
                -0.228113055229187,
                -0.18559351563453674,
                -0.11416112631559372
            ],
            "type" : "VEC3"
        },
        {
            "bufferView" : 1,
            "componentType" : 5126,
            "count" : 11130,
            "type" : "VEC2"
        },
        {
            "bufferView" : 2,
            "componentType" : 5126,
            "count" : 11130,
            "type" : "VEC3"
        },
        {
            "bufferView" : 3,
            "componentType" : 5126,
            "count" : 11130,
            "type" : "VEC4"
        },
        {
            "bufferView" : 4,
            "componentType" : 5123,
            "count" : 47442,
            "type" : "SCALAR"
        }
    ],
    "bufferViews" : [
        {
            "buffer" : 0,
            "byteLength" : 133560,
            "byteOffset" : 0,
            "target" : 34962
        },
        {
            "buffer" : 0,
            "byteLength" : 89040,
            "byteOffset" : 133560,
            "target" : 34962
        },
        {
            "buffer" : 0,
            "byteLength" : 133560,
            "byteOffset" : 222600,
            "target" : 34962
        },
        {
            "buffer" : 0,
            "byteLength" : 178080,
            "byteOffset" : 356160,
            "target" : 34962
        },
        {
            "buffer" : 0,
            "byteLength" : 94884,
            "byteOffset" : 534240,
            "target" : 34963
        }
    ],
    "samplers" : [
        {
            "magFilter" : 9729,
            "minFilter" : 9987
        }
    ],
    "buffers" : [
        {
            "byteLength" : 629124,
            "uri" : "Megaphone_01_4k.bin"
        }
    ]
}
