{
    "asset" : {
        "generator" : "Khronos glTF Blender I/O v3.4.50",
        "version" : "2.0"
    },
    "scene" : 0,
    "scenes" : [
        {
            "name" : "Scene",
            "nodes" : [
                0
            ]
        }
    ],
    "nodes" : [
        {
            "mesh" : 0,
            "name" : "Television_01"
        }
    ],
    "materials" : [
        {
            "doubleSided" : true,
            "name" : "Television_01",
            "normalTexture" : {
                "index" : 0
            },
            "pbrMetallicRoughness" : {
                "baseColorTexture" : {
                    "index" : 1
                },
                "metallicRoughnessTexture" : {
                    "index" : 2
                }
            }
        }
    ],
    "meshes" : [
        {
            "name" : "Cube.021",
            "primitives" : [
                {
                    "attributes" : {
                        "COLOR_0" : 0,
                        "POSITION" : 1,
                        "TEXCOORD_0" : 2,
                        "NORMAL" : 3,
                        "TANGENT" : 4
                    },
                    "indices" : 5,
                    "material" : 0
                }
            ]
        }
    ],
    "textures" : [
        {
            "sampler" : 0,
            "source" : 0
        },
        {
            "sampler" : 0,
            "source" : 1
        },
        {
            "sampler" : 0,
            "source" : 2
        }
    ],
    "images" : [
        {
            "mimeType" : "image/jpeg",
            "name" : "Television_01_nor_gl",
            "uri" : "textures/Television_01_nor_gl_4k.jpg"
        },
        {
            "mimeType" : "image/jpeg",
            "name" : "Television_01_diff",
            "uri" : "textures/Television_01_diff_4k.jpg"
        },
        {
            "mimeType" : "image/jpeg",
            "name" : "Television_01_metallic-Television_01_roughness",
            "uri" : "textures/Television_01_arm_4k.jpg"
        }
    ],
    "accessors" : [
        {
            "bufferView" : 0,
            "componentType" : 5123,
            "count" : 2440,
            "normalized" : true,
            "type" : "VEC4"
        },
        {
            "bufferView" : 1,
            "componentType" : 5126,
            "count" : 2440,
            "max" : [
                0.29999998211860657,
                0.4568334221839905,
                0.21244415640830994
            ],
            "min" : [
                -0.29999998211860657,
                -1.5506739146076143e-05,
                -0.25836652517318726
            ],
            "type" : "VEC3"
        },
        {
            "bufferView" : 2,
            "componentType" : 5126,
            "count" : 2440,
            "type" : "VEC2"
        },
        {
            "bufferView" : 3,
            "componentType" : 5126,
            "count" : 2440,
            "type" : "VEC3"
        },
        {
            "bufferView" : 4,
            "componentType" : 5126,
            "count" : 2440,
            "type" : "VEC4"
        },
        {
            "bufferView" : 5,
            "componentType" : 5123,
            "count" : 5754,
            "type" : "SCALAR"
        }
    ],
    "bufferViews" : [
        {
            "buffer" : 0,
            "byteLength" : 19520,
            "byteOffset" : 0,
            "target" : 34962
        },
        {
            "buffer" : 0,
            "byteLength" : 29280,
            "byteOffset" : 19520,
            "target" : 34962
        },
        {
            "buffer" : 0,
            "byteLength" : 19520,
            "byteOffset" : 48800,
            "target" : 34962
        },
        {
            "buffer" : 0,
            "byteLength" : 29280,
            "byteOffset" : 68320,
            "target" : 34962
        },
        {
            "buffer" : 0,
            "byteLength" : 39040,
            "byteOffset" : 97600,
            "target" : 34962
        },
        {
            "buffer" : 0,
            "byteLength" : 11508,
            "byteOffset" : 136640,
            "target" : 34963
        }
    ],
    "samplers" : [
        {
            "magFilter" : 9729,
            "minFilter" : 9987
        }
    ],
    "buffers" : [
        {
            "byteLength" : 148148,
            "uri" : "TV.bin"
        }
    ]
}
