{
    "asset" : {
        "generator" : "Khronos glTF Blender I/O v3.4.50",
        "version" : "2.0"
    },
    "scene" : 0,
    "scenes" : [
        {
            "name" : "Scene",
            "nodes" : [
                0
            ]
        }
    ],
    "nodes" : [
        {
            "mesh" : 0,
            "name" : "sphere_gltf"
        }
    ],
    "materials" : [
        {
            "doubleSided" : true,
            "name" : "wood_peeling_paint_weathered",
            "normalTexture" : {
                "index" : 0
            },
            "pbrMetallicRoughness" : {
                "baseColorTexture" : {
                    "index" : 1
                },
                "metallicFactor" : 0,
                "metallicRoughnessTexture" : {
                    "index" : 2
                }
            }
        }
    ],
    "meshes" : [
        {
            "name" : "Sphere.002",
            "primitives" : [
                {
                    "attributes" : {
                        "POSITION" : 0,
                        "TEXCOORD_0" : 1,
                        "NORMAL" : 2,
                        "TANGENT" : 3
                    },
                    "indices" : 4,
                    "material" : 0
                }
            ]
        }
    ],
    "textures" : [
        {
            "sampler" : 0,
            "source" : 0
        },
        {
            "sampler" : 0,
            "source" : 1
        },
        {
            "sampler" : 0,
            "source" : 2
        }
    ],
    "images" : [
        {
            "mimeType" : "image/jpeg",
            "name" : "wood_peeling_paint_weathered_nor_gl_8k",
            "uri" : "textures/wood_peeling_paint_weathered_nor_gl_4k.jpg"
        },
        {
            "mimeType" : "image/jpeg",
            "name" : "wood_peeling_paint_weathered_diff_8k",
            "uri" : "textures/wood_peeling_paint_weathered_diff_4k.jpg"
        },
        {
            "mimeType" : "image/jpeg",
            "name" : "wood_peeling_paint_weathered_rough_8k",
            "uri" : "textures/wood_peeling_paint_weathered_rough_4k.jpg"
        }
    ],
    "accessors" : [
        {
            "bufferView" : 0,
            "componentType" : 5126,
            "count" : 54151,
            "max" : [
                0.3794511556625366,
                0.38221222162246704,
                0.37841910123825073
            ],
            "min" : [
                -0.3794512152671814,
                -0.3824020326137543,
                -0.3784199357032776
            ],
            "type" : "VEC3"
        },
        {
            "bufferView" : 1,
            "componentType" : 5126,
            "count" : 54151,
            "type" : "VEC2"
        },
        {
            "bufferView" : 2,
            "componentType" : 5126,
            "count" : 54151,
            "type" : "VEC3"
        },
        {
            "bufferView" : 3,
            "componentType" : 5126,
            "count" : 54151,
            "type" : "VEC4"
        },
        {
            "bufferView" : 4,
            "componentType" : 5123,
            "count" : 322170,
            "type" : "SCALAR"
        }
    ],
    "bufferViews" : [
        {
            "buffer" : 0,
            "byteLength" : 649812,
            "byteOffset" : 0,
            "target" : 34962
        },
        {
            "buffer" : 0,
            "byteLength" : 433208,
            "byteOffset" : 649812,
            "target" : 34962
        },
        {
            "buffer" : 0,
            "byteLength" : 649812,
            "byteOffset" : 1083020,
            "target" : 34962
        },
        {
            "buffer" : 0,
            "byteLength" : 866416,
            "byteOffset" : 1732832,
            "target" : 34962
        },
        {
            "buffer" : 0,
            "byteLength" : 644340,
            "byteOffset" : 2599248,
            "target" : 34963
        }
    ],
    "samplers" : [
        {
            "magFilter" : 9729,
            "minFilter" : 9987
        }
    ],
    "buffers" : [
        {
            "byteLength" : 3243588,
            "uri" : "wood_peeling_paint_weathered_4k.bin"
        }
    ]
}
